<?xml version="1.0" encoding="UTF-8"?>
<svg id="Calque_2" data-name="Calque 2" xmlns="http://www.w3.org/2000/svg" viewBox="0 0 1484.77 409.7">
  <g id="Calque_1-2" data-name="Calque 1">
    <g>
      <path d="M1001.28,73.04c2.18-4.75,4.13-9.63,6.59-14.24,8.11-15.22,18.88-27.81,35.35-34.48,7.74-3.13,7.8-3.13,13.56,2.88,9.1,9.48,18.13,19.02,27.32,28.67,10.38-9.03,20.54-17.87,31.15-27.1,16.44,18.16,32.7,36.13,49.23,54.39,16.96-12.38,33.74-24.61,50.89-37.13,6.94,8.48,13.71,16.67,20.4,24.93,15.63,19.28,31.29,38.54,46.74,57.97,1.71,2.15,2.89,5.34,2.93,8.08,.44,25.49,.57,50.98,.8,76.47,.33,36.48,.62,72.97,1.02,109.45,.18,16.73,11.9,26.6,28.06,22.75,8.57-2.04,16.66-6.11,25.1-9.32-8.81,20.91-20.85,38.84-45.08,44.85-4.33,1.07-7.32,.32-10.25-3.52-10.4-13.64-21.31-26.9-31.79-40.48-1.57-2.03-2.6-5.04-2.62-7.61-.28-36.33-.31-72.65-.46-108.98-.11-25.99-.3-51.98-.52-77.97-.01-1.58-.16-3.48-1.01-4.7-14.61-20.87-29.33-41.65-44.51-63.11-9.84,6.97-19.13,13.55-28.97,20.52,2.34,2.59,4.31,4.98,6.5,7.15,5.03,4.98,7.1,10.92,7.09,18.01-.1,61.5-.08,122.99,0,184.49,0,3.27,.39,6.72,1.5,9.76,3.4,9.29,9.43,13.33,18.96,10.89,9.52-2.44,18.56-6.77,28.32-10.45-.76-.84-.37-.56-.42-.44-8.33,21.22-20.43,38.86-43.5,46.3-4.53,1.46-7.48,.74-10.61-3.2-8.7-10.95-18-21.42-26.86-32.26-1.44-1.76-2.48-4.4-2.52-6.65-.5-28.48-.72-56.97-1.12-85.45-.5-34.81-1.08-69.61-1.72-104.41-.03-1.7-.52-3.74-1.56-5.02-16.36-20.19-32.84-40.29-49.3-60.4-.3-.37-.75-.62-1.4-1.14-5.18,3.55-8.59,7.2-8.55,14.67,.28,59.16,0,118.32-.13,177.48-.02,11.83-.19,23.66-.14,35.49,.06,16.47,10.72,24.85,26.36,19.82,8.58-2.76,16.53-7.47,25.08-11.45-.54-.48-.12-.22-.16-.13-7.89,20.53-19.46,37.92-40.71,46.8-8.57,3.58-8.64,3.48-14.81-3.11-9.45-10.09-18.95-20.13-28.23-30.37-1.39-1.53-2.41-4.01-2.44-6.07-.48-33.15-.8-66.3-1.09-99.46-.37-41.98-.53-83.97-1.13-125.94-.13-8.85-5.15-15.78-12.5-20.45-2.05-1.3-5.79-1.44-8.13-.53-8.45,3.31-16.66,7.24-24.9,11.07-1.75,.81-3.23,2.19-4.84,3.3-.32-.2-.64-.41-.96-.61Z"/>
      <path d="M559.36,66.61c1.81-4.38,3.44-8.84,5.45-13.12,8.15-17.37,19.15-32.38,36.01-42.33,8.74-5.16,9.03-5.02,16.29,2.12,8.43,8.3,16.82,16.63,25.41,24.77,2.51,2.38,3.44,4.83,3.43,8.27-.1,48.83-.07,97.66-.07,146.49v6.21c1.29-.88,2.26-1.32,2.93-2.04,18.74-19.87,37.5-39.72,56.09-59.73,1.49-1.61,2.51-4.31,2.53-6.52,.24-22.33,.34-44.66,.19-66.99-.03-4.93-.71-9.99-1.96-14.76-1.56-5.99-5.19-8.36-11.25-7.1-6.73,1.41-13.25,3.81-19.98,5.82,1.9-11.5,7.1-22.17,16.17-30.4,5.34-4.84,11.86-8.45,18.14-12.11,1.37-.8,4.68-.16,5.94,1.04,8.8,8.38,17.4,16.99,25.8,25.77,1.53,1.6,2.57,4.34,2.63,6.58,.62,22.97,1.08,45.95,1.31,68.93,.02,2.53-1.12,5.55-2.72,7.54-9.48,11.82-19.25,23.41-29.2,35.39,8.07,8.97,15.68,18.24,24.19,26.6,6.06,5.95,8.09,12.25,8.09,20.68,0,20.46,.82,40.95,2.13,61.37,.46,7.16,3,14.26,5.18,21.2,1.56,4.97,5.54,6.59,10.75,5.73,11.11-1.84,19.9-8.1,28.57-14.63,1.31-.99,2.54-2.08,4.79-3.94-.64,2.25-.87,3.42-1.3,4.5-7.95,20.18-19.64,37.26-38.85,48.56-6.5,3.83-11.73,4.71-17.53-1.14-7.47-7.55-15.77-14.29-23.18-21.9-5.52-5.67-7.59-12.85-7.6-21-.04-23.82-.64-47.63-1.08-71.45-.03-1.42-.16-3.21-.99-4.19-6.86-8.12-13.91-16.09-21.26-24.54-12.25,13.47-23.93,26.46-35.81,39.26-3.09,3.32-3.34,7.13-3.15,11.12,.66,14.26,1.38,28.52,2.3,42.76,.14,2.24,1.09,4.58,2.19,6.59,6.08,11.2,11.27,14.16,21.94,9.05,8.03-3.85,15.36-9.18,22.95-13.92,1.51-.95,2.81-2.24,4.52-3.08-9.03,24.48-21.76,45.87-46.91,57.18-3.48,1.56-5.87,1.19-8.76-1.54-9.81-9.26-20.02-18.09-29.87-27.3-1.58-1.48-2.94-4.09-2.97-6.2-.37-25.49-.48-50.98-.63-76.47-.24-40.82-.43-81.64-.67-122.46-.06-10.16-.2-20.32-.34-30.48-.15-11.55-7.05-16.66-18.19-13.35-10.47,3.11-18.86,9.7-27.08,16.54-1.24,1.03-2.47,2.08-3.7,3.13-.29-.17-.59-.33-.88-.5Z"/>
      <path d="M398.62,81.1c8.69,1.42,14.73-2.61,20.21-7.22,13.38-11.26,26.57-22.74,39.64-34.35,8.32-7.39,16.28-15.18,24.65-23.03,9.41,9.01,18.68,17.82,27.89,26.72,12.22,11.81,24.46,23.59,36.46,35.62,1.75,1.75,3.09,4.77,3.12,7.23,.38,30.65,.48,61.3,.64,91.96,.17,30.82,.29,61.64,.55,92.46,.03,3.29,.39,6.7,1.33,9.83,2.96,9.83,10.87,14.26,20.05,9.87,8.9-4.27,16.93-10.37,25.3-15.73,1.35-.86,2.5-2.03,4.91-4.03-5.66,16.28-12.89,29.93-23.44,41.73-6.73,7.53-14.49,13.69-23.69,18.02-2.61,1.23-4.38,.96-6.58-.98-9.23-8.16-18.58-16.2-28.05-24.09-2.55-2.13-3.47-4.39-3.45-7.68,.11-31.16,.07-62.32,.07-93.48v-6.67c-19.41,6.65-38.31,6.87-57.43,1.13,5.45-1.54,11.17-2.5,16.31-4.75,10.15-4.45,20.4-8.94,29.83-14.69,8.04-4.9,11.86-12.71,11.47-22.87-.64-16.3-.09-32.65-.27-48.98-.02-2.09-.8-4.79-2.23-6.16-16.68-16.04-33.56-31.87-50.4-47.78-6.68,2.92-9.86,6.98-9.82,15.05,.38,73.65,.29,147.3,.09,220.95-.01,5.6,2.27,8.19,7.04,9.8,5.67,1.92,11.49,1.97,16.45-1.05,9.05-5.5,17.64-11.76,26.4-17.74,.93-.63,1.71-1.48,3.51-3.05-5.23,15.59-12.15,28.87-21.81,40.7-6.93,8.49-15.13,15.41-24.86,20.55-3.31,1.75-5.86,1.74-9.01-.73-10.08-7.92-20.37-15.58-30.76-23.11-2.87-2.08-3.93-4.25-3.92-7.81,.11-65.32,.12-130.64-.05-195.95,0-2.99-1.33-6.45-3.14-8.88-5.17-6.92-10.9-13.43-16.99-20.8Z"/>
      <path d="M137.83,337.25c-8.38,26.62-21.17,50.09-44.5,66.41-2.8,1.96-4.82,2.32-7.8,0-9.85-7.67-20.07-14.88-29.96-22.51-1.59-1.23-2.4-3.62-3.24-5.61-.42-.99-.1-2.3-.11-3.47-.17-75.15-.33-150.3-.49-225.45-.02-8.15-3.05-11.47-10.96-9.62-6.12,1.43-12.33,4.27-17.41,7.97-6.81,4.95-12.59,11.33-18.78,17.12-1.19,1.11-2.26,2.35-3.38,3.52l-1.19-.62c3.03-7.3,5.74-14.75,9.15-21.86,8.47-17.65,19.7-33.15,35.81-44.78,3.76-2.71,6.56-2.89,10.48,.02,8.68,6.43,17.82,12.25,27.28,18.66,11.46-13.41,22.89-26.78,34.76-40.68,5.74,4.2,11.4,7.97,16.66,12.25,14.98,12.2,29.78,24.62,44.69,36.91,4.64,3.82,7.47,8.67,7.57,14.61,.36,23.3,.7,46.6,.63,69.89-.05,14.93-8.93,25.54-19.4,34.63-13.78,11.97-30.45,17.56-48.45,18.99-6.94,.55-13.96,.09-21.31-.99,1.52-.65,3.03-1.32,4.56-1.94,15.8-6.39,31.14-13.53,43.54-25.73,2.68-2.64,3.88-5.32,3.85-9.18-.19-21.66-.05-43.33-.16-64.99,0-1.81-.43-4.3-1.63-5.31-16.76-13.93-33.69-27.66-50.52-41.39-6.79,5.55-9.45,11.95-9.18,20.71,.55,18.46-.4,36.96-.39,55.45,.01,53.99,.18,107.98,.31,161.96,.02,10.39,7,15.22,16.64,11.22,11.81-4.9,20.71-13.75,29.54-22.62,1.16-1.17,2.28-2.39,3.41-3.59Z"/>
      <path d="M1284.89,117.25c1.95-4.34,3.32-7.81,5.02-11.11,6.78-13.15,15.67-24.35,29.32-31.02,1.19-.58,2.42-1.11,3.66-1.58,11.15-4.3,11.63-4.19,19.2,4.87,12.05,14.44,24.09,28.91,36.57,43.88,13.45-10.44,26.8-20.81,40.95-31.79,4.79,5.42,9.57,10.63,14.12,16.04,3.43,4.07,6.49,8.46,9.84,12.6,6.85,8.48,15.44,13.97,27.77,14.51-11.74,8.9-22.42,17.1-33.29,25.03-.91,.66-3.72,.1-4.61-.86-3.14-3.41-5.78-7.28-8.71-10.89-3.97-4.9-7.56-10.25-12.17-14.46-7.92-7.23-17.3-7.26-26.05-1.07q-13.27,9.39-13.27,25.43c0,19,0,38,0,56.99v6.68c12.97-8.47,25.1-16.39,37.7-24.61,14.18,18.46,28.14,36.62,42.35,55.11-8.14,6.17-15.94,12.07-24.21,18.34-4.03-4.74-7.98-9.38-11.9-14.03-7.52-8.91-15.09-17.78-22.47-26.81-2-2.45-4.01-3.25-6.9-2.05-.92,.38-1.92,.55-2.85,.89-10.65,3.91-11.39,4.94-11.39,16.05,0,23.83-.1,47.66,.13,71.49,.03,2.87,1.16,6.27,2.95,8.48,13.07,16.19,26.35,32.21,39.8,48.09,2.53,2.99,5.91,5.41,9.24,7.55,3.91,2.52,7.06,1.43,7.8-3.13,1.06-6.52,1.36-13.2,1.52-19.82,.2-8.65-.11-17.32-.09-25.98,.02-6.61,2.64-11.9,8.28-15.6,9.02-5.93,18-11.93,28.22-18.72-1.05,26.88-1.87,52.64,13.37,75.68-11.97-6.31-21.72-.88-30.64,5.67-10.05,7.37-19.27,15.88-29.01,23.69-3.74,2.99-7.86,5.54-11.95,8.05-2.65,1.63-4.82,.87-6.87-1.68-21.48-26.77-43.21-53.33-64.42-80.31-2.97-3.77-4.3-9.36-4.95-14.3-.93-7.06-.67-14.29-.66-21.45,.05-44.48,.17-88.96,.29-133.44,.03-11.83,.2-23.66,.08-35.49-.02-1.78-.88-3.91-2.06-5.26-10.57-12.18-17.83-13.94-32.95-7.79-5.33,2.17-10.37,5.01-16.74,8.13Z"/>
      <path d="M378.29,59.17c-8.86,10.33-18.26,21.31-27.67,32.28-7.22,8.41-8.03,8.4-16.06,.29-2.46-2.48-4.87-5.04-7.53-7.28-7.48-6.28-14.9-7.37-22.88-1.74-6.01,4.24-10.79,10.22-16.17,15.38-5.39,5.17-7.09,11.29-6.91,18.82,.48,20.32,.16,40.66,.16,60.99,0,1.8,0,3.59,0,7.04,13.12-13.97,25.21-26.85,37.7-40.15,14.37,12.55,28.46,24.87,42.78,37.38-8.25,9.62-16.26,18.95-24.44,28.49-11.31-8.62-22.52-16.97-33.47-25.64-2.88-2.28-5.14-2.46-7.93-.41-1.34,.98-2.78,1.83-4.2,2.7-7.78,4.82-11.4,11.05-11.05,20.95,.84,23.3,.2,46.65,.38,69.98,.02,2.19,.92,5.16,2.49,6.42,12.86,10.29,25.89,20.39,39.08,30.26,3.28,2.45,7.2,4.18,11.04,5.71,4.9,1.94,7.91,.51,8.85-4.61,.98-5.36,1.25-10.9,1.31-16.36,.13-11.32-.3-22.64-.01-33.95,.08-3.15,1.04-6.95,2.99-9.28,10.34-12.28,21.13-24.19,31.76-36.22l1.11,.73c0,4.75-.05,9.5,.01,14.25,.1,7.99-.29,16.04,.54,23.96,1.26,12.06,3.06,15.31,13.2,30.57-7.9-2.11-14.3,1.19-19.16,6.21-10.28,10.61-19.97,21.81-29.62,33.01-7.28,8.44-13.88,17.47-21.24,25.84-4.98,5.66-6.13,5.43-11.78,.82-20.4-16.63-40.77-33.3-61.2-49.9-5.41-4.4-6.13-10.45-6.12-16.7,.02-19.83,.27-39.65,.29-59.48,.05-42.16,.02-84.32,0-126.48,0-8.4-5.15-13.23-13.16-10.63-7.11,2.3-13.95,6.15-20.13,10.44-6.21,4.31-11.47,10-17.14,15.09-.41-.19-.82-.39-1.23-.58,4.68-9.82,8.85-19.93,14.15-29.4,7.74-13.81,18.02-25.52,31.54-34.18,3.23-2.07,5.48-2.28,8.72,.34,12.81,10.34,25.91,20.32,39.15,30.62,10.08-11.98,20.05-23.82,30.01-35.66,2.68-3.19,5.58-6.22,7.97-9.61,2.15-3.05,4.36-3.19,7.05-1.13,5.27,4.04,10.35,8.34,15.76,12.18,4.43,3.14,8.9,6.95,13.94,8.31,5.32,1.44,11.33,.32,17.11,.32Z"/>
      <path d="M762.06,55.93c9.05-23.03,20.65-42.51,42.96-53.47,5.02-2.47,9.9-3.47,15.28-1.15,15.55,6.71,31.22,13.15,46.74,19.94,13.6,5.95,27.23,11.8,42.25,12.88,6.57,.47,13.2,.08,20.35,.08-.56,1.3-.93,3.51-2.2,4.9-8.43,9.17-16.58,18.7-25.86,26.94-3.17,2.82-9.32,3.05-14.12,3.1-7.46,.08-14.92-1.03-22.39-1.59-1.6-.12-3.21-.02-5.34-.02v5.82c0,66.13,0,132.27,0,198.4,0,12.07,9.51,20.35,21.19,16.98,8.3-2.4,15.97-7.06,23.81-10.95,2.48-1.23,4.58-3.23,7.82-5.59-4.68,13.48-10.87,24.82-19.5,34.79-7.65,8.84-16.73,15.66-27.89,19.54-2.79,.97-4.81,.67-7.02-1.64-9.56-9.98-19.44-19.66-28.94-29.7-1.47-1.55-2.21-4.39-2.22-6.64-.23-53.64-.3-107.27-.44-160.91-.04-14.32-.1-28.64-.37-42.96-.15-7.95,2.07-14.61,8.13-20.07,2.63-2.37,4.46-5.62,7.07-9.02-12.95-5.22-25.05-10.15-37.2-14.97-7.49-2.97-14.75-2.03-21.52,2.11-6.64,4.06-13.12,8.39-20.6,13.2Z"/>
      <path d="M912.79,110.51c11.67-10.9,23.34-21.81,35.39-33.07,1.09,1.33,2.95,3.57,4.78,5.83,8.9,11,17.89,21.94,26.6,33.1,1.49,1.91,2.52,4.73,2.55,7.15,.34,26.98,.48,53.96,.59,80.94,.11,24.99,.11,49.97,.18,74.96,.04,13.1,10.23,21.78,22.89,18.37,7.91-2.13,15.29-6.29,22.87-9.6,1.81-.79,3.51-1.86,6.58-3.5-2.57,5.53-4.39,10.01-6.67,14.24-8.79,16.3-20.61,29.35-38.65,35.73-4.9,1.73-9.11,1.48-12.7-2.53-9.07-10.15-18.36-20.13-27.01-30.63-2.18-2.65-3.16-7.02-3.19-10.62-.33-38.14-.28-76.29-.51-114.43-.08-13.81-.55-27.63-.99-41.43-.41-12.97-9.05-20.65-24.71-22.22-2.44-.24-4.88-.46-7.33-.69-.23-.52-.46-1.04-.7-1.57Z"/>
      <path d="M961.73,21.18c10.66,10.21,20.98,20.09,31.78,30.44-9.34,8.92-18.31,17.48-27.78,26.52-9.16-10.5-18.17-20.83-27.52-31.54,8.06-8.72,15.93-17.22,23.51-25.41Z"/>
    </g>
  </g>
</svg>