<?xml version="1.0" encoding="UTF-8"?>
<svg id="Calque_2" data-name="Calque 2" xmlns="http://www.w3.org/2000/svg" viewBox="0 0 1696 449">
  <defs>
    <style>
      .cls-1 {
        fill: #ff0;
      }
    </style>
  </defs>
  <g id="Calque_1-2" data-name="Calque 1">
    <path class="cls-1" d="M0,187c.62-1.88,1.22-3.77,1.86-5.65,4.66-13.49,18.36-21.31,31.64-18.07,13.29,3.25,21.8,16.41,19.97,30.5-1.38,10.64,2.86,19.58,9.35,27.57,12.69,15.63,29.94,21.64,49.33,22.36,7.76,.29,15.57-.65,23.62-1.04v-58.79c-5.48,5.37-10.81,10.19-15.66,15.44-4.41,4.77-9.37,7.89-16.01,7.93-12.75,.08-23.28-11.51-19.72-23.68,9.76-33.35,26.04-62.67,55.64-82.83,5.49-3.74,11.38-6.56,18.24-4.81,3,.77,5.96,2.09,8.6,3.71,5.25,3.22,10.26,6.82,15.38,10.24,.26,.17,.63,.17,1.44,.38,4.69-5.51,9.52-11.19,14.36-16.86,2.38-2.79,4.75-5.59,7.2-8.31,7.94-8.82,17.56-10.47,27.82-4.43,5.15,3.03,9.94,6.66,15.4,10.36,.58-1.69,1.17-3.29,1.67-4.91,7.3-23.61,18.98-44.5,39.15-59.48,30.64-22.77,63.85-23.71,97.84-9.1,11.18,4.8,21.19,12.37,31.58,18.91,2.21,1.39,3.79,1.94,6.61,1.59,4.76-.6,10.48-1.13,14.42,.93,8.3,4.35,16,10.03,23.36,15.89,4.75,3.78,8.46,5.95,15.06,3.59,12.85-4.6,25.43,5.12,25.85,18.92,.04,1.14,.12,2.28,.27,5.05,3.59-2.38,6.61-3.9,9.06-6.08,19.64-17.52,39.25-35.07,58.68-52.83,6.67-6.09,13.94-8.42,22.42-5.18,2.85,1.09,5.49,3.16,7.74,5.29,14.39,13.64,28.65,27.42,42.96,41.15,1.19,1.14,2.41,2.24,4.07,3.77,1.02-1.97,1.92-3.63,2.76-5.33,9.59-19.49,22.32-36.32,41.2-47.74,4.38-2.65,9.15-4.78,13.96-6.57,8.44-3.13,15.98-1.3,22.46,5.06,11.28,11.06,22.63,22.04,34.31,33.4,.97-1.79,1.75-3.2,2.5-4.62,8.77-16.51,21.81-28.29,38.91-35.83,10.21-4.5,19.09-3.08,26.98,4.74,8.63,8.56,17.28,17.11,25.87,25.72,1.04,1.04,1.77,2.39,2.28,3.09,6.85-7.66,12.85-15.03,19.55-21.69,9.24-9.18,20.75-14.76,33.04-18.77h9c24.13,6.35,45.77,18.76,68.66,28.12,13.14,5.37,26.52,8.49,40.93,5.49,3.77-.79,8.06,.93,12.93,1.61,1.85-1.97,4.31-4.66,6.84-7.28,9.12-9.45,21.02-9.58,30.44-.29,4.03,3.98,7.92,8.11,11.94,12.1,3.9,3.87,7.88,7.66,12.26,11.89,1.15-1.24,2.45-2.64,3.74-4.05,10.56-11.58,23.02-20.06,38.35-24.1,9.41-2.48,17.35-.57,24.01,6.77,5.59,6.15,11.46,12.05,17.44,18.29,5.38-4.64,10.52-9.11,15.7-13.52,9.98-8.49,21.12-7.77,30.06,1.91,3.83,4.14,7.59,8.34,11.7,12.85,3.49-4.22,6.66-8.22,10-12.06,12.26-14.05,26.4-25.65,44.72-30.58,33.34-8.97,60.13,2.77,82.17,27.63,10.33,11.65,16.8,25.5,21.13,40.38,.55,1.89,1.11,3.77,1.8,6.09,1.42-.65,2.51-1.27,3.69-1.68,7.97-2.77,15.8-6.11,23.97-8.07,8.58-2.06,16,.99,21.76,7.96,9.64,11.69,19.43,23.26,29.55,35.34,5.34-4.11,10.58-8.12,15.81-12.15,3.17-2.44,6.26-4.98,9.5-7.33,8.15-5.91,17.86-6.02,25.24,.86,7.03,6.55,13.16,14.07,19.56,21.28,2.76,3.11,5.18,6.51,7.78,9.77,3.3,4.14,7.51,6.16,12.9,6.53,9.06,.62,15.61,6.02,18.01,14.13,2.45,8.24-.33,16.48-7.69,22.11-10.59,8.09-21.25,16.09-31.9,24.1-10.22,7.68-21.55,7.43-30.74-1.53-4.84-4.71-8.55-10.58-12.77-15.93-2.55-3.23-5.1-6.47-7.49-9.51-5.46,1.86-7.04,5.11-6.78,10.15,.42,7.98,.13,15.99,.16,23.99,0,.32,.13,.64,.36,1.75,1.93-1.14,3.7-2.12,5.41-3.2,10.31-6.47,20.94-4.79,28.33,4.74,13.59,17.5,27.19,35,40.46,52.74,2.86,3.82,4.34,8.68,6.61,13.4,.7-.36,2.19-1.01,3.55-1.85,22.49-14.02,40.43-32.46,53.68-55.43,4.06-7.04,5.94-14.63,6.8-22.74,.61-5.8,1.98-12.01,4.86-16.96,5.26-9.06,14.01-13.06,24.6-11.93,10.79,1.15,17.92,7.3,22.06,17.14,.7,1.67,1.28,3.38,1.92,5.08v12c-3.7,14.96-12.11,27.54-20.24,40.28-19.23,30.14-43.86,54.76-74.93,72.61-4.36,2.5-6.08,5-5.69,9.95,.45,5.62,.1,11.32-.1,16.98-.56,16.54,2.76,31.98,11.76,46.17,5.16,8.14,3.97,17.36-2.11,24.03-5.94,6.51-15.38,8.68-23.25,4.54-3.55-1.87-6.28-1.64-9.08,.55-8.25,6.46-16.54,12.87-24.55,19.61-8.8,7.41-17.44,14.97-28.81,18.28h-10c-7.08-2.3-11.99-7.18-16.5-12.94-12.23-15.6-24.8-30.94-37.25-46.37-1.03-1.27-2.13-2.49-3.48-4.06-2.09,2.7-3.91,5.21-5.89,7.58-13.09,15.71-29.07,26.25-50.01,27.91-8.53,.67-15.12-2.64-20.35-9.34-10.45-13.38-21.08-26.62-31.84-40.18-2.27,2.5-4.22,4.73-6.27,6.87-11.36,11.88-24.83,19.92-41.21,22.81-8.71,1.54-15.68-1.01-21.31-7.78-8.21-9.86-16.52-19.64-24.79-29.44-1.49-1.77-3.01-3.51-4.83-5.63-1.44,1.58-2.64,2.9-3.86,4.21-11.06,11.87-24.14,20.29-40.16,23.82-8.72,1.92-15.98,0-22.14-6.75-11.89-13.02-24.02-25.83-36.3-38.99-2.81,3.3-5.27,6.39-7.93,9.3-10.93,11.94-23.88,20.65-39.8,24.49-8.06,1.94-15.65,.87-22.25-4.3-14.96-11.71-27.7-25.54-37.38-41.89-2.78-4.69-3.62-10.53-5.42-16.02-.59,1.12-1.43,2.73-2.28,4.32-11.03,20.69-25.71,37.64-47.99,46.74-3.06,1.25-6.29,2.18-9.51,2.98-7.56,1.87-14.25,0-19.72-5.5-11.16-11.23-22.38-22.41-33.18-33.97-3.04-3.25-4.73-7.76-6.75-11.22-4.8,6.61-9.63,13.99-15.2,20.77-9.81,11.94-22.24,20.48-36.58,26.19-7.16,2.85-14.21,2.49-20.34-2.37-11.71-9.28-23.18-18.87-35.1-28.62-1.16,1.39-3.12,3.8-5.14,6.15-10.27,11.96-22.38,21.32-37.37,26.68-9.36,3.35-17.49,1.89-24.86-5.06-9.07-8.56-18.48-16.77-27.99-25.35-3.26,3.93-6.17,7.7-9.36,11.23-9.38,10.4-20.28,18.7-33.39,23.96-8.25,3.31-15.62,2.09-22.32-3.66-9.48-8.14-18.97-16.27-28.92-24.81-1.17,1.55-2.22,2.95-3.28,4.35-9.96,13.24-21.88,24.11-36.93,31.43-9.85,4.79-18.69,4.14-27.41-2.85-9.87-7.92-20.04-15.48-30.38-22.79-7.3-5.16-12.92-11.03-12.86-20.22-8.4-2.49-14.45,.42-19.46,6.72-9.53,11.99-19.14,23.93-28.92,35.72-5.2,6.27-10.33,12.74-16.36,18.15-11.45,10.27-22.17,10.05-33.98,.41-20.65-16.86-41.23-33.8-62.02-50.49-8.21-6.59-12.98-15.09-13.34-25.25-.64-17.97-.29-35.97-.29-53.95,.01-39.66,.07-79.32,.11-118.99,0-1.45,0-2.89,0-4.34-.43-.26-.85-.52-1.28-.79-5.63,5.5-11.33,10.92-16.79,16.59-.79,.82-.54,2.79-.52,4.22,.29,23.14,.77,46.27,.9,69.41,.13,22.8-11.89,39.47-28.56,53.08-18.6,15.19-40.65,21.53-64.38,22.59-1.5,.07-3,.08-4.5,.15-.32,.02-.63,.19-1.29,.39v53.67c5.66-5.63,10.57-10.4,15.35-15.29,6.31-6.47,14.5-8.57,22.33-5.56,9.06,3.48,15.17,13.36,12.4,22.49-10.17,33.53-27.06,62.58-57.37,82.11-8.35,5.38-16.6,5.09-24.64-.77-10.9-7.95-21.53-16.28-32.63-23.95-8.02-5.55-11.49-12.6-11.44-22.35,.15-33.83-.15-67.66-.28-101.48,0-2.13,0-4.26,0-5.45-13.85-.59-27.23-.05-40.26-1.94-29.62-4.28-55.2-17.01-74.9-40.12-10.47-12.29-16.79-26.67-20.17-42.39-.17-.78-.59-1.5-.89-2.26,0-4.67,0-9.33,0-14Zm140.86,58.7c-14.05,3.48-28.08,3.74-42.23,1.3-18.18-3.13-32.63-12.17-42.99-27.43-5-7.36-8.13-15.65-6.98-24.59,1.24-9.61-1.14-17.54-8.72-23.39-6.67-5.14-14.34-5.81-21.91-2.01-8.56,4.3-12.86,11.58-13.01,21.15-.35,21.9,9.01,39.97,23.12,55.74,13.21,14.77,30.1,24.31,48.83,30.15,16.47,5.14,33.38,8.09,50.81,5.46,4.19-.63,8.48-.67,13.23-1.01,0,2.09,0,3.88,0,5.68,0,36,.01,72,.01,108,0,6,1.07,11.75,6.1,15.56,12.26,9.28,24.71,18.32,37.13,27.39,5.3,3.86,11.22,4.81,16.64,.93,7.79-5.57,15.87-11.09,22.46-17.95,16.07-16.7,26.65-36.83,33.71-58.84,2.56-7.98,.19-15.18-6.22-19.03-6.19-3.71-13.65-2.47-19.36,3.23-3.77,3.77-7.4,7.7-11.36,11.26-3.6,3.24-7.56,6.08-12.23,9.78v-68.08c1.72,0,3.35,.14,4.95-.02,9.35-.96,18.87-1.17,28-3.15,20.39-4.43,37.84-14.37,51.36-30.59,9.9-11.89,14.94-25.59,14.77-41.06-.22-20.97,.05-41.98-1.37-62.88-.46-6.84,1.54-10.61,5.94-14.48,6.87-6.05,13.68-12.18,20.51-18.27,.63,.37,1.26,.74,1.89,1.11,0,4.97,.02,9.94,0,14.9-.31,54.32-.61,108.64-.95,162.96-.09,14,5.18,24.83,16.55,33.59,19.83,15.27,39.02,31.37,58.31,47.33,8.41,6.96,16.75,8.27,24.94,.95,8.2-7.33,15.11-16.16,22.33-24.54,10.07-11.67,19.79-23.65,29.95-35.24,2-2.28,5.18-4.3,8.1-4.8,4.64-.79,9.52-.21,14.82-.21,0,1.32-.62,4.13,.14,6.49,1.32,4.09,2.47,9.17,5.49,11.62,12.69,10.3,26,19.85,39.2,29.53,4.23,3.1,9,3.67,14.09,1.84,12.11-4.35,22.13-11.78,30.71-21.14,5.52-6.02,10.5-12.54,15.78-18.9,11.28,9.58,22.41,19.32,33.91,28.59,2.46,1.98,6.29,3.27,9.44,3.2,10.67-.25,19.1-6.34,26.57-12.96,8.71-7.71,16.35-16.64,24.66-25.25,9.99,9,20.84,18.53,31.4,28.39,5.35,5,11.19,6.69,18.1,4.5,10.72-3.41,20.29-8.97,28.24-16.87,6.64-6.6,12.62-13.86,18.87-20.81,10.05,13.17,22.63,23.93,36.31,33.45,4.83,3.36,9.95,4.26,15.8,1.97,16.54-6.45,30.23-16.71,40.04-31.34,7.33-10.94,13.19-22.88,19.24-33.54,0,4.79,.23,10.9-.07,16.98-.27,5.72,1.73,10.32,5.64,14.28,10.88,11.03,21.57,22.27,32.79,32.95,2.57,2.45,7.19,4.58,10.46,4.1,6.85-1,13.95-2.88,20.04-6.1,23.74-12.54,36.87-33.86,46.02-58.11,2.43-6.44,.3-13.83-4.57-17.5-5.6-4.22-12.76-4.05-18.92-.04-6.61,4.31-13.35,8.43-20.24,12.29-2.21,1.24-5.04,1.38-7.76,2.06V102.97c24.38,7.3,40.44-5.24,54.32-22.88,2.42,2.66,4.14,4.54,5.93,6.51-1.14,1.25-1.89,2.12-2.69,2.94-10.43,10.77-20.91,21.5-31.3,32.31-7.8,8.1-4.61,21.72,5.99,24.88,3.58,1.07,7.53,1.05,11.32,1.24,7.8,.38,11.01,2.48,11.35,9.95,.84,18.79,1.28,37.61,1.43,56.42,.26,32.33,.3,64.66,.15,96.99-.03,6.61,1.79,12.32,5.35,17.62,9.04,13.45,19.61,25.56,32.15,35.85,4.66,3.83,10.04,7.01,16.28,5.9,18-3.19,32.46-12.54,43.94-26.65,3.23-3.97,6.5-7.92,9.67-11.79,1.83,2.7,3.27,5.55,5.36,7.8,11.21,12.09,22.81,23.83,33.79,36.11,5.11,5.72,11.02,7.03,17.89,5.69,3.68-.72,7.29-2.05,10.77-3.49,13.97-5.76,25-15.25,33.98-27.73,9.88,11.76,19.53,23.1,29.01,34.58,5.36,6.48,10.5,13.39,20.31,11.66,12.05-2.13,23.12-6.79,32.24-15.13,5.97-5.46,11.44-11.47,17.33-17.45,10.98,13.81,22.32,27.84,33.41,42.07,7.98,10.23,12.24,11.42,25.51,8.9,14.82-2.81,26.8-10.8,36.51-22.17,4.22-4.95,8.05-10.23,12.26-15.61,15.42,19.21,30.88,38.26,46.08,57.51,7.31,9.26,16.7,12.17,27.01,6.46,6.58-3.64,12.44-8.62,18.44-13.24,9.18-7.07,18.14-14.43,27.34-21.48,3.91-3,7.9-3.74,12.73-.76,5.89,3.63,12.32,2.21,17.18-2.55,4.86-4.75,6.03-11.54,2.91-17.73-1.63-3.24-3.62-6.3-5.24-9.55-7.79-15.64-8.66-32.38-7.78-49.41,.22-4.29,.43-8.65-.1-12.88-.38-3.06,.07-4.56,2.98-6.1,19.47-10.35,36.59-23.88,51.87-39.73,13.87-14.39,24.86-30.94,35.17-47.96,5.91-9.77,11.23-19.71,10.83-31.78-.39-11.45-8.82-21.36-20.59-22.17-8.96-.62-19.9,5.16-22.46,17.7-1.67,8.18-1.45,17.2-4.97,24.44-5.51,11.32-12.63,22.12-20.57,31.93-13.71,16.93-30.79,30.08-50.55,39.52-.46,.22-1.12,.03-2.06,.03,4.05-8.31,2.27-14.97-3.17-21.77-13.14-16.41-25.77-33.22-38.49-49.96-5.92-7.8-14.34-9.46-22.6-4.13-4.04,2.61-8.1,5.19-12.67,8.13,0-14.29-.01-27.62,.02-40.95,0-.96,.03-2.1,.52-2.84,5.02-7.45,12.1-7.41,17.63-.14,5.4,7.1,10.52,14.51,16.63,20.97,7.31,7.72,16.11,7.66,24.42,1.27,10.22-7.87,20.5-15.66,30.83-23.36,6.39-4.77,8.83-10.59,6.98-17.53-1.74-6.53-7.47-11.22-15.07-11.34-5.62-.09-10.03-2.17-13.45-6.25-6.61-7.87-12.65-16.22-19.5-23.86-5.21-5.82-10.52-13.31-19.5-11.68-5.44,.98-10.58,4.87-15.33,8.19-7.55,5.28-14.66,11.19-22.07,16.92-11.12-13.27-21.92-26.05-32.58-38.94-3.49-4.22-7.61-6.61-13.19-6.54-12.01,.16-22.4,4.77-32.11,11.35-1.1,.75-2.32,1.31-3.69,2.08-5.16-27-16.6-49.6-38.47-65.75-17.58-12.98-37.17-18-58.92-12.73-16.86,4.09-30.29,13.61-41.8,26.09-5.9,6.39-11.29,13.25-16.18,19.02-3.13-2.64-6.34-5.06-9.21-7.84-2.98-2.89-5.52-6.23-8.44-9.19-6.36-6.45-13.59-7-20.76-1.27-6.96,5.56-13.63,11.47-20.53,17.32-7.03-7.35-13.83-14.42-20.58-21.54-4.19-4.41-9.1-7.53-15.33-6.34-9.65,1.84-18.84,5.34-26.44,11.64-7.33,6.08-14.03,12.91-20.44,18.88-9.03-8.66-18.56-17.72-28.01-26.86-7.41-7.17-16.58-6.93-23.62,.53-3.41,3.61-7.15,6.92-10.91,10.52-4.5-3.24-9.43-4.94-15.46-3.12-3.4,1.03-7.26,1.06-10.87,.83-14.36-.91-27.42-6.29-40.41-11.99-15.64-6.86-31.34-13.6-47.16-20.04-6.12-2.49-12.61-3.83-19.31-1.58-9.99,3.35-19.31,8.11-26.59,15.67-8.26,8.57-15.65,17.98-23.07,26.63-10.21-13.07-22.65-25.27-36.13-36.42-3.84-3.18-8.54-3.76-13.56-2-14.35,5.03-26.3,13.38-34.86,25.92-4.54,6.64-7.88,14.1-11.51,20.71-2.38-2.72-4.88-5.95-7.77-8.79-10.2-10.06-20.62-19.9-30.78-30.01-5.53-5.51-11.37-6.9-18.84-4-18.53,7.2-32.14,20.05-42.55,36.46-5.34,8.42-9.68,17.47-14.56,26.4-.8-.71-1.8-1.53-2.73-2.42-16.7-16.04-33.34-32.14-50.11-48.12-5.9-5.63-14.94-5.7-20.65-.47-16.07,14.72-31.83,29.81-48.31,44.05-8.83,7.63-16.44,18.35-30.51,16.87-.52-.05-1.07,.18-1.86,.33,6.45-10.82,1.41-22.08-8.98-24.19-3.74-.76-8.13,.44-11.96,1.63-4.13,1.28-7.41,.75-10.58-2-4.39-3.8-8.64-7.81-13.32-11.23-9-6.58-18.14-13.38-28.73-7.02-11.7-7.18-22.24-14.7-33.68-20.43-20.96-10.49-43.28-13.96-66.29-7.99-28.94,7.5-48.18,26.68-60.6,53.03-4.56,9.67-7.57,20.07-11.36,30.33-1.41-1.01-2.98-2.19-4.6-3.29-5.88-3.96-11.53-8.34-17.72-11.73-7.3-4-13.99-2.12-19.41,4.23-8.19,9.59-16.45,19.12-24.86,28.88-6.79-4.59-13.65-9.16-20.42-13.84-5.41-3.74-11.15-4.51-16.7-.98-5.98,3.81-12.01,7.79-17.19,12.6-19.73,18.32-32.02,41.25-39.97,66.71-2.49,7.99-.28,15.21,6.34,19.04,5.83,3.38,13.72,2.99,19.24-3.46,3.03-3.54,6.05-7.14,9.47-10.28,4.87-4.49,10.09-8.58,15.94-13.5v72.37ZM984.07,110.25v179.3c7.17-4.71,13.5-8.53,19.46-12.86,8.08-5.87,16.3-6.46,24.6-1.21,.77,.49,1.58,.91,2.87,1.64,0-2.43,.01-4.23,0-6.03-.34-35.65-.65-71.29-1.04-106.94-.12-11.13-.55-11.48-11.78-11.83-.17,0-.33,0-.5,0-9.32,.12-16.2-3.92-19.6-12.61-3.39-8.64-1.12-16.3,5.48-22.76,3.69-3.61,7.23-7.36,10.06-10.25-9.35,1.13-19.14,2.31-29.55,3.57Z"/>
    <path class="cls-1" d="M1106.07,92.76c9.22-21.86,20.86-40.97,44.91-49.02,3.89-1.3,6.1-.27,8.6,2.45,9.23,10.05,18.63,19.94,28.49,30.44,10.37-8.98,20.6-17.83,31.27-27.06,10.05,11.01,19.97,21.89,30.05,32.94,5.3-7.62,10.22-15.04,15.47-22.21,11.04-15.06,23.74-28.25,42.38-33.65,19.3-5.59,36.49-.73,51.69,11.82,18.33,15.15,26.74,35.56,30.02,58.44,1.52,10.63,2.4,21.36,3.5,31.43,4.52-6.34,8.98-13.61,14.44-20.03,8.05-9.47,18.52-15.28,30.98-16.94,1.18-.16,2.92,1.18,3.85,2.28,13.64,16.25,27.18,32.58,41.03,49.22,7.37-5.71,14.54-11.29,21.72-16.84,5.37-4.15,10.86-8.14,16.07-12.48,2.4-1.99,4.13-1.64,5.89,.43,5.36,6.32,10.88,12.52,15.97,19.05,11.73,15.06,13.05,16.11,31.33,21.53-10,7.57-19.94,14.92-29.67,22.54-3.57,2.79-5.98,1.74-8.27-1.32-4.57-6.08-9.05-12.22-13.62-18.29-8.88-11.82-22.63-14.55-33.97-4.64-1.86,1.63-4.01,2.93-5.96,4.46-3.67,2.89-5.49,6.23-5.4,11.38,.37,22.16,.16,44.33,.16,66.49v5.87c8.67-5.67,16.5-10.78,24.32-15.89,3.46-2.26,7.04-4.36,10.33-6.83,2.66-2,4-1.39,5.94,1.17,12.9,17.01,26.01,33.87,39.34,51.16-7.43,5.68-14.81,11.4-22.34,16.92-.56,.41-2.59-.25-3.24-1.01-10.88-12.75-21.73-25.53-32.36-38.5-2.01-2.46-3.7-3.44-6.67-2.17-2.25,.96-4.7,1.43-6.95,2.38-5.8,2.44-9.1,5.99-8.55,13.21,.77,10.11,.35,20.32,.11,30.48-.08,3.41,1.05,4.91,4.22,6.08,31.7,11.67,63.14,11.14,93.89-2.82,35.54-16.12,62.18-41.96,80.62-76.31,4.86-9.06,6.66-18.9,7.32-29,.38-5.82,2.53-8.44,7.05-7.95,3.96,.44,6.79,5.26,5.78,9.94-2.67,12.41-10.26,22.29-16.75,32.76-16.72,26.99-38.51,48.91-65.7,65.26-17.23,10.36-35.76,17.13-56,19.12-37.31,3.67-69.58-8.17-98.13-31.4-23.83-19.39-40.05-43.83-46.4-74.15-1.99-9.48-3.25-19.22-3.68-28.89-.82-18.63-.23-37.33-1.3-55.94-1.26-22-4.69-43.65-17.73-62.43-10.35-14.9-23.91-25.38-42.1-28.04-13.85-2.03-26.47,2.52-37.58,10.88-15.66,11.78-26.41,27.64-36.5,44.11-31.76,51.82-57.52,106.53-78.87,163.35-11.1,29.54-27.93,55.56-47.25,80.24-7.75,9.9-15.91,19.12-27.58,24.47-2.97,1.36-6.03,2.89-9.19,3.34-2.35,.33-5.46-.25-7.31-1.64-11.38-8.58-20.21-19.6-28.69-30.94-3.56-4.76-3.84-10.13-3.85-15.61-.1-37.83-.06-75.66-.24-113.49-.06-13.49-.48-26.98-1.01-40.45-.32-8.19-5.26-13.59-12.47-16.39-6.01-2.33-12.49-3.47-19.69-5.39,11.65-10.6,23.31-21.21,35.1-31.94,5.01,6.13,11.38,13.85,17.67,21.64,4.58,5.67,9.13,11.37,13.49,17.21,1.07,1.44,1.86,3.48,1.88,5.26,.43,51.65,.77,103.3,1.06,154.95,.09,16,10.62,23.7,26.25,19.37,15.82-4.38,27.49-13.98,36.2-27.59,1.7-2.65,3.25-5.42,5.19-7.87,4.85-6.13,4.31-13.21,4.23-20.37-.43-38.82-.67-77.64-1.07-116.46-.15-15.16-.3-30.32-.88-45.46-.34-8.75-5.35-15.69-12.52-19.65-5.35-2.96-12.03-.78-17.62,1.97-6.87,3.37-13.53,7.15-20.71,10.98Zm333.47,180.81c.47-.34,.93-.67,1.4-1.01,0-1.65,0-3.3,0-4.96,.02-40.45-.14-80.91,.25-121.36,.06-6.47-2.15-10.71-6.89-14.29-3.85-2.91-6.99-6.46-12.82-6.32-10.35,.24-19.14,4.31-27.76,9.22-.88,.5-1.67,2.1-1.63,3.16,.58,18.08,.19,36.28,2.24,54.19,3.05,26.6,15,49.61,32.94,69.44,3.82,4.22,8.17,7.97,12.28,11.93Zm-245.54-85.83c.27,.06,.54,.13,.82,.19,.5-.98,1.02-1.95,1.51-2.93,10.23-20.78,20.26-41.66,30.84-62.26,2.54-4.95,3.33-8.17-.86-12.75-8.23-8.99-15.66-18.7-23.41-28.09-2.55,2.21-4.82,3.93-6.76,5.96-1.01,1.07-2.04,2.69-2.04,4.06-.11,31.94-.09,63.87-.09,95.81Z"/>
    <path class="cls-1" d="M503.97,102.17c10.4-.06,17.2-5.79,23.78-11.52,20.05-17.47,39.89-35.18,60.01-52.96,10.21,9.74,20.7,19.68,31.12,29.71,11.04,10.63,22.11,21.24,32.91,32.11,1.73,1.74,3.01,4.79,3.03,7.24,.26,46.5,.23,93,.4,139.49,.06,16.32,.37,32.65,.84,48.96,.21,7.04,3.33,12.65,10.01,15.82,5.3,2.51,10.21,.37,14.53-2.08,8.7-4.93,17.02-10.55,26.07-16.24-3.27,6.87-6.1,13.82-9.75,20.32-8.66,15.42-19.87,28.4-36.28,36.19-2.81,1.33-4.49,1.32-6.91-.84-8.41-7.53-17.02-14.85-25.73-22.04-3.41-2.81-5.17-5.69-5.13-10.45,.25-31,.13-62,.13-93v-6.07c-3.4,.85-6.37,1.51-9.29,2.35-11.48,3.27-23.08,3.65-34.88,2.02-5.58-.77-11.27-1.21-16.9-1.11-21.43,.37-39.98-7.41-57-19.65-18.62-13.4-31.72-31.35-41.91-51.57-8.83-17.52-17.06-35.34-26.07-52.77-14.84-28.74-36.42-50.33-67.84-60.38-26.32-8.42-50.73-4.74-71.49,14.43-13.08,12.07-21.01,27.53-25.51,44.56-4.74,17.92-8.29,36.15-13.18,54.02-8.92,32.59-25.09,61.1-50.77,83.45-19.9,17.31-42.97,28.45-69.17,32.97-26.57,4.58-51.94,1.67-75.85-11.16-20.75-11.13-35.53-27.35-41.26-50.65-1.18-4.78-1.1-10.01-.75-14.98,.29-4.11,3.64-6.01,7.55-5.21,3.56,.73,4.9,3.73,4.57,7.23-1.93,20.34,5.96,36.72,20.21,50.58,13.4,13.04,29.63,19.73,48.03,22.12,17.19,2.23,33.92,.48,50.53-4,3.08-.83,4.24-2.08,4.22-5.35-.17-30-.16-60-.25-89.99-.02-5.47-4.78-8.61-10.85-7.54-9.68,1.71-17.29,7.11-24.27,13.52-5.25,4.83-10.15,10.06-16.25,16.16,5.8-17.75,12.81-33.34,23.87-46.55,6.64-7.93,14.88-14.54,22.51-21.62,1.94-1.8,3.88-1.97,6.52-.07,8.69,6.27,17.79,11.98,26.59,18.11,2.12,1.48,3.25,1.45,4.93-.53,9.96-11.8,20.13-23.44,30.01-35.31,2.07-2.49,3.61-2.29,5.79-.6,11.52,8.9,23.07,17.76,34.62,26.63,.38,.29,.83,.48,1.64,.93,2-8.8,3.8-17.44,5.94-26,5.24-21,13.78-40.22,30.47-54.89,10.95-9.63,23.56-15.61,38.14-16.96,33.12-3.08,59.18,11.11,81.74,33.71,1.29,1.3,2.54,2.64,3.84,3.92,.22,.21,.59,.27,1.32,.57,2.83-3.22,5.76-6.55,9.48-10.78,4.65,3.37,9.45,6.69,14.08,10.23,3.68,2.81,7.11,5.96,10.74,8.84,7.44,5.92,15.83,5.69,25.99,2.78-7.42,8.65-13.82,16.1-20.2,23.56-3.45,4.04-6.98,8.03-10.2,12.24-.76,1-1.03,3.12-.51,4.26,9.43,20.38,18.35,41.12,32.88,58.55,9.81,11.77,21.22,21.91,34.98,29.06,.97,.5,2.06,.78,3.74,1.4,.1-2.2,.26-3.93,.26-5.67,.02-21.5-.49-43.02,.26-64.49,.3-8.67-2.61-14.9-8.11-20.83-4.03-4.35-7.67-9.06-11.98-14.21Zm65.82-29.15c-8.44,3.08-10.06,8.65-9.98,16.49,.41,40.48,.19,80.97,.19,121.46v6.3c19.29-1.04,36.08-6.82,51.12-17.82,8.35-6.11,12.4-13.89,12.03-24.57-.56-15.81-.05-31.65-.26-47.48-.03-2.18-1.04-4.94-2.57-6.41-16.79-16.16-33.77-32.12-50.53-47.97ZM192,240.1c1.56-.93,2.54-1.43,3.43-2.05,23.29-16.35,39.35-38.46,51.12-64.03,1.18-2.57,.36-3.65-1.63-5.21-8.21-6.45-16.22-13.16-24.34-19.72-6.38-5.16-12.83-10.25-19.19-15.33q-9.39,9.94-9.39,22.33c0,25.99,0,51.98,0,77.97v6.03Z"/>
    <path class="cls-1" d="M816.19,170.43c9.92,11.01,19.66,21.71,29.2,32.58,1.37,1.55,2.45,3.94,2.5,5.97,.52,18.47,.18,36.99,1.33,55.42,.69,11.07,2.91,22.18,5.72,32.94,2.34,8.95,6.55,10.35,15.46,7.97,11.17-2.97,20.11-9.69,29.64-17.36-3.82,10.91-8.59,20.41-14.89,29.06-8.24,11.31-18.48,20.36-31.58,25.75-1.42,.58-3.76,.78-4.85,0-11.23-8.02-21.99-16.54-30.51-27.62-4.64-6.03-5.92-12.78-6.04-20.02-.38-22.99-.68-45.97-1.23-68.95-.06-2.6-.87-5.7-2.46-7.64-6.19-7.57-12.84-14.78-19.69-22.53-5.1,5.35-9.97,10.24-14.6,15.35-7.81,8.62-15.54,17.31-23.09,26.16-1.26,1.47-2.03,3.88-2.01,5.84,.15,12.96-.03,25.98,1.17,38.86,.57,6.16,3.26,12.38,6.14,17.98,3.36,6.54,9.31,8.23,16.52,6.1,11.35-3.36,20.55-10.32,29.46-17.76,.45,.25,.9,.49,1.34,.74-4.43,8.41-8.36,17.13-13.42,25.15-8.45,13.41-19.48,24.23-34.47,30.4-2.65,1.09-4.56,1.04-6.95-1.19-10.47-9.75-21.31-19.09-31.78-28.83-1.39-1.29-2.01-4.02-2.02-6.09-.18-32.83-.13-65.66-.29-98.49-.21-42.99-.54-85.97-.87-128.96-.06-8.2-3-12.97-9.95-14.52-3.12-.7-7.17-.32-9.95,1.16-10.27,5.46-20.18,11.58-29.37,16.96,8.61-22.44,21.05-43.68,45.34-55.55,3.09-1.51,5.33-1.3,7.87,1.27,9.94,10.09,20.17,19.89,30.06,30.03,1.36,1.4,1.99,4.08,1.99,6.17,.11,49,.08,98,.08,146.99v5.42c.4,.33,.79,.66,1.19,.99,1.53-1.83,2.96-3.75,4.59-5.48,17.03-18.05,34.01-36.15,51.2-54.05,3.55-3.7,5.24-7.39,5.17-12.72-.33-22.83-.08-45.66-.21-68.49-.02-3.25-.57-6.59-1.48-9.72-2.19-7.58-6.94-9.81-16.09-7.35-5.02,1.35-9.85,3.44-15.19,5.36,.65-7.18,3.83-13.54,7.41-19.62,5.89-10.01,14.69-16.86,25-21.98,3.15-1.57,5.65-1.2,8.07,1.22,8.13,8.13,16.38,16.14,24.34,24.43,1.56,1.63,2.84,4.27,2.89,6.48,.54,22.15,.57,44.3,1.28,66.44,.18,5.65-1.65,9.73-5.09,13.77-8.95,10.46-17.73,21.07-26.87,31.98Z"/>
    <path class="cls-1" d="M1255.72,89.84c4.47,4.8,8.52,9.16,12.93,13.89,16.71-12.17,33.49-24.38,50.73-36.93,4.06,4.84,8.11,9.57,12.04,14.39,15.6,19.14,31.09,38.38,46.79,57.44,3.8,4.61,6.2,9.04,5.96,15.49-.77,21.05-.13,42.06,5.7,62.55,.27,.93,.11,1.99,.12,2.98,.34,40.81,.55,81.62,1.06,122.43,.21,16.37,11.26,28.43,30,23.36,7.68-2.08,14.92-5.75,23.73-9.23-4.42,7.67-8.01,15.09-12.69,21.74-8.26,11.74-19.38,19.7-33.72,22.68-3.11,.65-5.46,.56-7.74-2.38-10.97-14.12-22.3-27.98-33.27-42.1-1.45-1.87-2.25-4.75-2.26-7.16-.2-39.16-.14-78.31-.31-117.47-.1-23.32-.5-46.63-.81-69.95-.02-1.26-.1-2.77-.77-3.72-14.48-20.3-29.06-40.54-43.62-60.78-.48-.66-1.1-1.22-1.89-2.08-9.57,6.79-19.07,13.54-28.65,20.34,1.37,1.74,2.35,3.62,3.87,4.83,8.72,6.96,10.05,16.39,10.01,26.76-.19,45.32-.06,90.64-.1,135.96-.01,13.82-.29,27.65-.25,41.47,0,3.07,.38,6.3,1.36,9.19,4.41,12.91,11.56,14.35,21.88,11.71,8.65-2.22,16.75-6.6,24.91-9.95-8.41,20.79-20.86,38.57-44.62,45.44-2.58,.75-4.98,.77-7.34-2.14-9.49-11.74-19.5-23.06-29.19-34.64-.95-1.13-1.49-2.94-1.51-4.45-.42-22.31-.8-44.63-1.05-66.94-.4-35.64-.72-71.29-1.01-106.94q-.17-20.62-13.74-35.88c-5.73-6.42-5.84-6.48-1.79-13.68,4.9-8.7,10.02-17.27,15.24-26.25Z"/>
    <path class="cls-1" d="M484.12,239.85c-1.2,24.81-4.66,48.81,12.99,69.16-10.55-1.93-17.66,3.81-23.48,10.17-11.39,12.46-21.8,25.82-32.66,38.77-5.01,5.97-10.01,11.95-15.24,17.72-2.42,2.67-4.83,3.37-8.41,.4-20.55-17.03-41.38-33.71-62.14-50.48-4.48-3.62-6.19-8.4-6.19-14,.01-62.32-.24-124.64,.22-186.96,.09-12.03-8.19-14.42-16.58-11.87-10.58,3.22-18.75,10.2-26.52,17.67-2.15,2.06-3.97,4.46-5.94,6.7-.48-.29-.97-.58-1.45-.86,1.06-2.87,2.07-5.76,3.21-8.6,6.61-16.46,15.49-31.47,28.62-43.6,4.1-3.79,8.93-6.78,13.31-10.28,2.57-2.06,4.59-1.39,6.91,.45,12.72,10.08,25.5,20.07,38.27,30.07,.37,.29,.88,.42,1.76,.83,8.5-10.04,17.05-20.14,26.6-31.42,8.06,12.82,15.69,24.95,23.32,37.08-.62,.5-1.23,1.01-1.85,1.51-1.29-1.6-2.44-3.34-3.88-4.78-11.07-11.13-22-11.54-33.34-.48-5.79,5.64-10.56,12.33-15.71,18.61-.56,.69-.9,1.78-.9,2.68-.05,25.3-.04,50.6-.04,77.45,13.09-13.93,25.3-26.91,38.06-40.49,14.02,12.21,27.86,24.28,42.26,36.82-7.96,9.33-15.86,18.59-23.91,28.02-11-8.38-21.9-16.44-32.49-24.88-3.5-2.79-6.38-3.32-9.92-.57-2.21,1.72-4.68,3.12-6.89,4.84-4.76,3.69-7.45,7.89-7.31,14.66,.51,24.82,.15,49.65,.3,74.48,.01,2.05,.82,4.88,2.29,6.01,14.38,11.1,28.96,21.92,43.52,32.79,.92,.68,2.06,1.06,3.08,1.6,9.86,5.23,13.54,.69,13.89-8.71,.49-12.98,.49-26-.03-38.98-.34-8.56,2.39-15.57,7.99-21.62,9.01-9.72,18.19-19.28,28.28-29.93Z"/>
    <path class="cls-1" d="M1014.58,294.14c-8.45,22.92-20.67,42.11-44.35,51.25-3.25,1.26-5.48,1.14-8.1-1.61-8.98-9.39-18.4-18.36-27.37-27.76-1.74-1.82-3.12-4.84-3.13-7.31-.33-69.47-.52-138.95-.46-208.43,0-3.61,1.92-7.59,3.95-10.75,3-4.66,6.91-8.73,10.96-13.69-11.06-4.62-21.09-8.97-31.27-12.98-4.25-1.67-8.73-2.98-13.22-3.77-7.15-1.26-13.15,2.28-18.91,5.8-5.28,3.23-10.27,6.95-15.91,10.8,9.04-23,21.1-42.74,44.27-53.37,4.02-1.84,7.94-2.44,12.21-.62,17.21,7.35,34.52,14.46,51.71,21.85,15.53,6.68,31.26,12.38,48.56,11.41,3.1-.17,6.18-.7,9.26-1.06,.41,.38,.82,.77,1.23,1.15-3.1,4.23-5.87,8.75-9.36,12.62-5.24,5.8-10.65,11.57-16.67,16.52-3.07,2.53-7.6,4.45-11.52,4.55-8.23,.21-16.53-.71-24.74-1.66-7.87-.9-8.54-.58-8.54,7.41,0,65.15,0,130.3,0,195.45,0,14.39,10.98,23.06,24.57,18.33,8.11-2.82,15.49-7.73,23.17-11.75,1.28-.67,2.44-1.59,3.65-2.4Z"/>
    <path class="cls-1" d="M1441.01,289.34c11.43,6.09,22.63,11.97,33.71,18.06,1.1,.61,2.12,2.41,2.18,3.7,.25,5.15,.44,10.35,.03,15.48-.65,8.11,1.31,14.71,6.75,21.27,13.32,16.08,25.35,33.24,40.98,47.31,.12,.11,.21,.29,.35,.35,3.34,1.42,6.69,2.83,10.03,4.24,1.32-3.38,3.63-6.71,3.78-10.14,.49-10.93,.47-21.9,.1-32.83-.39-11.56,3.21-20.46,13.88-26.25,7.35-3.99,14.17-8.95,22.24-14.12-.21,25.77-2.14,51.18,14.06,74.26-16.25-6.71-26.8,2.31-37.32,10.24-10.04,7.58-19.45,15.99-29.16,24.02-.88,.73-1.93,1.26-2.89,1.9-3.82,2.56-6.84,2.57-10.06-1.53-14.22-18.1-28.71-35.98-43.13-53.91-6.23-7.75-12.31-15.63-18.89-23.07-4.2-4.74-6.29-10.28-6.48-16.13-.47-14.44-.15-28.91-.15-42.84Z"/>
    <path class="cls-1" d="M241.83,358.71c-6.96,20.53-17.07,39.24-32.73,54.54-3.99,3.9-8.71,7.09-13.33,10.27-1.07,.74-3.54,.75-4.58,0-10.47-7.52-20.7-15.38-31.19-22.87-2.35-1.68-3.07-3.32-3.06-6.06,.03-30.49-.05-60.97-.14-91.46-.03-10.32-.11-20.65-.36-30.97-.08-3.15,1.03-4.36,4.05-5.58,10.48-4.24,20.72-9.08,31.51-13.89v4.82c0,37.99,0,75.97,0,113.96,0,11.33,7.33,16.12,17.76,11.55,10.35-4.54,18.64-11.87,26.47-19.79,1.63-1.65,3.04-3.52,4.55-5.3,.35,.26,.7,.51,1.05,.77Z"/>
    <path class="cls-1" d="M523.83,220.04c12.1,2.83,23.72,5.55,36.17,8.46v4.13c0,25.15,0,50.31,0,75.46,0,7.95,3.5,11.35,11.51,11.96,8.09,.62,14.9-2.58,21.26-6.79,6.47-4.28,12.53-9.2,18.76-13.84,.41,.2,.83,.4,1.24,.59-4.9,9.27-9.37,18.8-14.79,27.75-7.4,12.23-17.47,21.94-29.95,29.15-4.33,2.5-7.66,2.21-11.59-.9-9.83-7.8-19.99-15.19-29.94-22.85-1.15-.89-2.56-2.44-2.56-3.69-.14-36.63-.11-73.27-.11-109.44Z"/>
    <path class="cls-1" d="M203.17,282.23c15.02-5.91,29.64-12.55,42.42-22.7,5.45-4.33,8.87-8.82,8.63-16.61-.63-20.62-.26-41.28-.15-61.92,.01-2.4,.59-4.87,1.31-7.18,4.22-13.41,8.56-26.77,13.06-40.77,6.1,5.75,13.44,11.19,18.7,18.19,3.02,4.03,3.42,10.54,3.72,16,.76,14.11,1.14,28.26,1.04,42.39-.07,9.42-.33,19.02-2.22,28.18-1.21,5.83-4.88,11.54-8.63,16.39-12.66,16.4-30.11,24.86-50.27,27.68-9.11,1.28-18.41,1.21-27.62,1.76,0-.47,.02-.95,.03-1.42Z"/>
    <path class="cls-1" d="M1193.85,216.15c0,30.85-.12,60.67,.11,90.48,.04,5.33,.45,11.13,2.58,15.86,3.47,7.7,13.22,11.12,22.35,7.97,8.77-3.02,17.08-7.41,26.39-11.56-4.17,7.49-7.75,15.31-12.56,22.28-8.48,12.27-19.41,21.7-34.52,24.95-1.5,.32-3.88-.27-4.9-1.34-10.95-11.41-21.74-22.96-32.44-34.6-1.07-1.17-1.74-3.15-1.77-4.77-.16-9.33-.12-18.66-.04-27.99,.01-1.42,.35-2.94,.91-4.24,10.76-24.89,21.58-49.76,32.4-74.62,.24-.56,.64-1.05,1.5-2.42Z"/>
    <path class="cls-1" d="M916,283.11c-7.14-12.67-15.8-14.35-26.61-6.43-6.6,4.84-13.46,9.33-20.2,13.98-.56-.31-1.12-.62-1.69-.93-1.17-11.6-2.92-23.17-3.36-34.8-.59-15.31-.28-30.65-.08-45.98,.08-6.02-1.96-10.94-5.9-15.25-7.07-7.74-14.15-15.46-21.55-23.54,6.93-8.37,13.61-16.77,20.67-24.84,4.45-5.09,6.99-10.48,6.8-17.43-.32-11.77-.09-23.56-.09-35.8,8.64,1.89,14.09-4.87,19.94-9.8,9.99-8.41,19.99-9.42,31.06-2.85,1.81,1.07,3.83,1.79,5.91,2.75-4.75,7.62-5.96,15.82-5.91,24.33,.34,56.64,.67,113.28,1,169.91,.01,1.83,0,3.66,0,6.68Zm-73.03-113.17c6.25,6.92,12.09,13.73,18.31,20.19,5.18,5.37,7.35,11.49,7.31,18.93-.09,16.31,.07,32.63,.54,48.94,.24,8.22,1.4,16.41,2.24,25.74,4.38-3,7.69-5.16,10.88-7.5,2.41-1.77,4.57-3.89,7.01-5.62,6.74-4.78,13.99-4.41,21.5-1.37,.1-1.41,.23-2.39,.23-3.37-.11-44.46-.43-88.91-.24-133.36,.07-16.01-2.53-32.27,3.02-47.88-8.63-5.87-17.06-6.94-25.36,.46-1.61,1.43-3.42,2.65-5.22,3.85-4.75,3.17-9.54,6.27-14.69,9.64,0,9.61-.12,20.25,.05,30.89,.1,6.47-1.73,12-6,16.94-6.53,7.55-12.79,15.33-19.58,23.52Z"/>
    <path class="cls-1" d="M1080.8,108.59c3.26-3.07,6.27-5.91,9.5-8.95,.92,1.38,1.59,2.46,2.35,3.49,5.8,7.84,14.58,8.86,22.62,3.23,5.5-3.85,11.34-7.32,17.38-10.24,5.49-2.65,8.5-.54,9.32,5.56,.11,.82,.03,1.66,.03,2.5,.33,53.78,.72,107.57,.88,161.35,.01,3.24-1.11,6.83-2.71,9.69-7.1,12.7-16.31,23.15-31.16,27.08-5.69,1.5-6.95,.75-6.95-4.95-.05-49.63-.33-99.27,.07-148.89,.08-10.42-3.08-18.54-9.97-25.89-4.05-4.32-7.52-9.19-11.37-13.96Zm8.57-1.22c-.46,.29-.91,.58-1.37,.87,.55,1.25,.88,2.68,1.7,3.73,3.46,4.47,6.94,8.95,10.66,13.21,4.28,4.91,5.98,10.46,6,16.94,.09,36.79,.39,73.59,.56,110.38,.07,14.94,.01,29.89,.01,45.52,2.37-.88,4.04-1.51,5.71-2.11,11.3-4.05,17.52-13.36,23.35-22.92,1.38-2.26,2.22-5.25,2.2-7.89-.3-53.11-.76-106.22-1.21-159.32-.02-1.87-.26-3.73-.51-7.11-6.61,4.05-12.04,7.48-17.57,10.72-2.98,1.74-5.99,3.7-9.25,4.62-8.01,2.28-14.56-1.07-20.27-6.64Z"/>
    <path class="cls-1" d="M482.18,202.48c7.34,5.27,15.55,11.07,23.62,17.07,1.11,.83,2.1,2.66,2.11,4.03,.11,23.98,.06,47.96,.02,71.95,0,.25-.29,.5-.7,1.16-5.55-6.7-8.03-14.33-8.18-22.66-.22-11.82,.04-23.65-.09-35.47-.07-6.1-3.6-10.26-8.83-12.68-5.27-2.44-11.02-2.45-15.22,1.85-11.62,11.89-23.01,24.01-34.12,36.38-6.7,7.46-8.71,16.94-8.72,26.7-.01,8.14,.6,16.28,.92,24.42,.06,1.47,0,2.95,0,5.77-6.28-4.64-11.83-8.58-17.21-12.75-4.45-3.45-8.84-7.01-12.94-10.87-1.44-1.35-2.71-3.71-2.73-5.61-.19-21.65-.18-43.3-.02-64.95,.01-1.86,1.49-3.7,2.28-5.55,1.54,.74,3.24,1.26,4.59,2.26,8.11,6,16.13,12.12,24.19,18.19,8.27,6.23,16.92,4.87,23.34-3.08,6.78-8.39,14.17-16.29,20.92-24.7,2.78-3.46,4.59-7.71,6.75-11.44Zm-55.22,108.51c.65-11.48,.75-22.25,2-32.88,1.34-11.37,9.9-19.02,17.41-28.39-8.84,1.71-14.87-1.3-20.54-5.89-6.53-5.29-13.33-10.25-20.08-15.41-.43,.75-.72,1.01-.72,1.27-.02,20.46-.03,40.92,.06,61.38,0,1.16,.61,2.69,1.47,3.4,6.63,5.52,13.4,10.89,20.39,16.52Zm75.26-79.86c.59-.18,1.18-.36,1.78-.53-1-2.79-1.2-6.49-3.14-8.2-5.06-4.46-10.89-8.05-16.44-12.01-2.49,3.24-5.08,6.61-8.02,10.44,11.48-2.79,20.12,.24,25.83,10.31Z"/>
    <path class="cls-1" d="M1305.11,116.41c10.88,15.35,21.8,30.67,32.56,46.1,.95,1.36,1.27,3.41,1.27,5.14,.09,48.8,.07,97.6,.18,146.4,0,2.75-.93,3.92-3.34,5.1-8.49,4.14-16.8,8.64-26.48,13.69-.61-4.29-1.26-6.75-1.26-9.21-.06-60.96-.08-121.92,0-182.88,.01-7.09-1.37-13.66-4.6-19.96-.62-1.21-.09-3.01-.09-4.54,.58,.05,1.16,.1,1.75,.15Zm8,209.79c6.62-3.72,12.25-7.11,18.11-10.08,2.84-1.44,3.55-3.3,3.53-6.3-.3-46.83-.49-93.66-.73-140.48,0-1.46,.11-3.24-.63-4.33-6.42-9.43-13.02-18.74-20.28-29.11v190.3Z"/>
    <path class="cls-1" d="M671,295.31c0-1.91,0-3.81,0-5.72-.06-33.3-.03-66.6-.2-99.9-.14-26.96-.45-53.92-.88-80.88-.07-4.27,.55-7.38,4.5-9.97,7.01-4.59,13.56-9.86,20.35-14.79,.73-.53,1.75-.65,3.4-1.23,0,13.09-.07,25.68,.01,38.27,.3,47.61,.16,95.23,1.37,142.82,.27,10.61-2.81,17.1-11.16,22.27-5.3,3.28-10.44,6.8-15.66,10.22-.58-.36-1.16-.72-1.73-1.08Zm4.51-7.59c.49,.31,.98,.61,1.47,.92,4.45-3.37,8.83-6.86,13.39-10.09,3.44-2.44,4.61-5.41,4.57-9.71-.56-55.48-.92-110.96-1.32-166.44-.03-3.73,0-7.46,0-11.19-.48-.21-.95-.42-1.43-.63-4.49,3.59-8.9,7.3-13.52,10.73-2.98,2.21-3.85,4.83-3.81,8.5,.33,36.15,.51,72.31,.64,108.47,.08,23.15,.02,46.3,.02,69.44Z"/>
    <path class="cls-1" d="M1237.84,147.12c.72,3.37,2.01,6.72,2.07,10.1,.8,46.46,1.38,92.92,2.17,139.37,.06,3.6-.86,5.55-4.2,7.15-7.38,3.53-14.32,8.04-21.83,11.26-5.72,2.46-7.05,1.11-7.05-5.11-.02-31.16,.45-62.32-.3-93.46-.21-8.79,1.44-16.32,5.19-23.91,7.09-14.34,13.95-28.78,20.92-43.18,.35-.71,.81-1.37,1.22-2.06,.6-.06,1.2-.11,1.8-.17Zm-23.86,163.22c.44,.4,.88,.81,1.32,1.21,6.21-3.71,12.37-7.52,18.67-11.09,2.51-1.42,3.26-3.16,3.22-5.99-.66-43.13-1.21-86.26-1.81-129.39-.02-1.36-.27-2.71-.41-4.06-6.09,10.83-11.16,21.8-16.36,32.72-3.29,6.89-5.61,13.55-4.87,21.73,1.11,12.22,.25,24.62,.24,36.95,0,19.3,0,38.61,0,57.91Z"/>
    <path class="cls-1" d="M1042.8,66.89c8.06-8.69,15.86-17.1,23.58-25.44,10.1,10.06,20.21,20.14,30.61,30.5-8.83,8.42-17.69,16.88-27.06,25.81-9.16-10.42-17.99-20.47-27.14-30.88Z"/>
    <path class="cls-1" d="M398.92,71.48c-3.33,4.05-6.7,8.15-10.37,12.62-7.27-5.6-14.43-11.11-21.57-16.63-3.27-2.53-6.43-5.23-9.78-7.66-5.9-4.27-11.95-4.63-18.46-.96-18.96,10.69-32.4,26.56-42.69,45.31-4.01,7.31-7.3,15.02-11,22.72-3.35-1.42-4.06-3.69-3.17-7.61,3.81-16.69,7.64-33.3,17.68-47.69,11.92-17.08,28.15-25.91,48.98-24.43,17.05,1.21,31.94,8.54,45.23,19.14,1.68,1.34,3.32,2.74,4.94,4.15,.19,.17,.13,.61,.21,1.04Zm-57.65-19.31c-23.5,.67-44.12,22.23-49.34,49.22,12.03-20.71,26.86-37.88,49.34-49.22Zm17.19,2.6c9.65,7.48,19.3,14.96,29.24,22.65,1.73-2.05,3.26-3.87,5-5.92-10.49-8.42-21.34-14.73-34.24-16.73Z"/>
    <path class="cls-1" d="M765.25,181.66V78.56c10.04,8.27,13.03,8.42,24.22,1.75,1.79-1.07,3.91-1.59,6.55-2.63,.35,1.86,.9,3.39,.89,4.91-.2,21.31-.42,42.62-.83,63.92-.03,1.73-1.08,3.79-2.29,5.1-9.19,9.86-18.54,19.57-28.53,30.05Zm5.14-93.43v81.13c6.55-6.89,12.66-13,18.34-19.48,1.66-1.9,2.92-4.86,2.96-7.36,.28-17.8,.2-35.6,.22-53.4,0-1.21-.19-2.42-.33-4.16-6.88,4.89-13.81,6.02-21.18,3.27Z"/>
    <path class="cls-1" d="M1275.45,79.64c6.7-11.07,14.4-21.01,24.89-28.65,15.71-11.43,33.99-8.95,47.74,3.49,13.18,11.92,18.9,27.34,21.92,44.19,.33,1.87,.64,3.74,1.18,6.86-10.09-12.33-19.39-23.69-28.68-35.05-3.67-4.48-7.15-9.13-11.02-13.44-6.46-7.19-13.85-7.95-21.63-2.36-11.5,8.27-22.93,16.63-34.39,24.96Zm57.69-28.12c9.32,11.36,18.64,22.73,27.95,34.09-4.26-15.56-12.46-27.86-27.95-34.09Z"/>
    <path class="cls-1" d="M460.55,177.3c-3.59-3.01-6.96-5.75-10.24-8.59-5.65-4.88-11.28-9.79-16.85-14.75-6.2-5.52-15.04-5.59-21.03,.19-3.9,3.77-7.47,7.88-12.18,12.89,0-12.15-.02-23.03,.05-33.9,0-.72,.62-1.52,1.13-2.13,3.74-4.43,7.27-9.07,11.36-13.14,4.27-4.25,6.54-3.88,10.88,.27,3.71,3.55,7.65,6.86,11.32,10.43,1.25,1.22,2.15,2.85,2.99,4.42,7.64,14.22,15.23,28.46,22.81,42.7,.12,.22-.08,.61-.24,1.61Zm-54.76-23.47c12.7-13.61,24.96-10.45,37.38,2.23-5.29-15.33-12.48-27.49-25.08-35.82-11.12,6.72-15.18,17.43-12.3,33.59Z"/>
    <path class="cls-1" d="M575.32,237.47h31.66c0,14.55,.01,29.17-.04,43.79,0,.72-.42,1.68-.97,2.11-7.8,6.1-15.58,12.21-23.54,18.09-1.88,1.39-4.37,1.97-7.11,3.16v-67.15Zm4.95,60.18c4.52-3.35,8.04-6.12,11.72-8.64,7.76-5.33,12.63-11.88,10.59-21.98-.52-2.56-.08-5.31-.08-7.98v-16.71h-22.22v55.31Z"/>
    <path class="cls-1" d="M1406,270.43c5.35,4.5,11.96,9.96,18.38,15.62,.74,.65,.57,2.47,.6,3.75,.36,15.12,.66,30.24,1.06,45.35,.05,1.94,.26,4.03,1.03,5.77,2.26,5.15-.31,7.08-4.81,8.11-1.9,.44-3.71,1.3-5.61,1.74-6.22,1.46-9.57-1.01-9.71-7.48-.4-18.11-.67-36.23-.92-54.34-.1-7.08-.02-14.16-.02-18.54Zm5.21,9.81c0,19.37-.04,38.35,.02,57.33,.03,9.82,.98,10.36,10.31,6.5,.28-.12,.48-.42-.1,.11-.32-15.9-1.23-31.04-.71-46.13,.28-8.25-2.84-13.46-9.52-17.8Z"/>
    <path class="cls-1" d="M508,178.68c-9.66-8.58-16.78-17.64-22.44-27.75-5.37-9.59-10.24-19.47-15.14-29.31-.67-1.35-.94-3.85-.16-4.81,5.4-6.65,11.13-13.03,17.45-19.53-2.19,10.98,6.39,16.26,11.43,23.29,2.12,2.95,4.85,5.47,7.05,8.37,.94,1.24,1.71,2.96,1.73,4.47,.13,14.64,.08,29.29,.08,45.28Zm-5.9-12.66c.36-.13,.72-.26,1.08-.39,0-10.56,.04-21.11-.07-31.66-.01-1.01-.86-2.12-1.56-2.98-5.93-7.34-11.92-14.63-18.1-22.19-2.47,2.85-5.13,5.58-7.32,8.66-.72,1.01-.79,3.21-.19,4.35,6.31,11.87,12.7,23.7,19.34,35.39,1.82,3.2,4.53,5.9,6.83,8.83Z"/>
    <path class="cls-1" d="M788.18,218.98c5.45,4.56,8.3,9.51,8.02,16.78-.42,10.93,.6,21.9,.6,32.86,0,2.25-1.13,5.29-2.8,6.6-6.6,5.15-13.55,9.87-20.54,14.49-3.16,2.09-6.05,1.96-6.48-2.82-.84-9.35-1.52-18.71-2.42-28.05-1.01-10.43,2.1-18.85,10.43-25.7,4.95-4.07,8.84-9.41,13.2-14.17Zm.77,6.28c-3.5,3.71-5.89,6.23-8.27,8.78-11.69,12.56-11.81,12.56-11.45,29.74,.15,7.03,.93,14.05,1.43,21.07,.54,.23,1.09,.47,1.63,.7,5.59-4.08,11.34-7.96,16.66-12.36,1.6-1.32,2.81-4.1,2.81-6.22,.02-11.65-.31-23.29-.72-34.93-.07-1.93-1.15-3.83-2.09-6.78Z"/>
    <path class="cls-1" d="M1533.59,325.85c-6.3,5.88-9.13,13.33-9.51,21.6-.36,7.91-.08,15.85-.08,25.42-5.38-6.32-9.91-11.44-14.2-16.75-4.14-5.14-7.54-10.97-12.15-15.6-5.49-5.51-4.99-11.7-4.4-17.66,13.55,1,26.87,1.99,40.35,2.99Zm-35.68,2.16c-.53,4.78,14.59,26.15,20.17,29.54,1.41-8.9,2.87-18.12,4.29-27.09-7.66-.77-15.9-1.59-24.46-2.44Z"/>
    <path class="cls-1" d="M207.91,263.37c-1.7-6.76-.5-10.94,4.88-15.19,9.2-7.27,17.27-15.95,26.14-24.35,0,6.56,.04,13.38-.06,20.19,0,.66-.77,1.44-1.37,1.95-8.66,7.52-18.46,13.06-29.59,17.4Zm25.66-26.96c-7.27,6.49-14.22,12.7-21.17,18.91,.23,.35,.46,.69,.7,1.04,5.56-3.42,11.08-6.91,16.69-10.24,3.74-2.22,5.28-5.18,3.78-9.71Z"/>
    <path class="cls-1" d="M1493.12,286.09v-20.92c7.22,8.5,13.76,16.21,20.31,23.92-.1,.39-.2,.78-.29,1.17-6.62-1.38-13.24-2.76-20.01-4.17Z"/>
    <path class="cls-1" d="M1424.03,231.34c-7.27-11.85-12.3-24.69-13.85-38.45-1.59-14.12-1.7-28.4-2.71-42.59-.31-4.39,1.06-6.87,5.48-7.61,2.41-.41,5.27-2.2,7.04-1.4,2.43,1.1,5.67,4.04,5.7,6.23,.38,27.87,.25,55.75,.25,83.62-.64,.07-1.27,.13-1.91,.2Zm-5.77-21.44c.63-.04,1.25-.08,1.88-.12,.08-1.13,.23-2.26,.24-3.4,.19-18.27,.44-36.53,.43-54.8,0-1.82-1.71-5.25-2.35-5.19-3.05,.3-6.73,.31-6.37,5.44,.64,9.27,.25,18.63,1.24,27.86,1.09,10.13,3.24,20.14,4.93,30.21Z"/>
    <path class="cls-1" d="M575.32,198.78V99.86c2.03,1.66,3.6,2.78,4.99,4.1,8.09,7.66,16.23,15.26,24.12,23.12,1.42,1.42,2.43,3.93,2.46,5.96,.2,14.97,.29,29.94-.06,44.91-.06,2.76-1.54,6.76-3.64,7.97-8.33,4.82-17.17,8.79-25.84,13-.5,.24-1.27-.08-2.03-.15Zm4.96-4.91c6.92-3.9,13.12-7.01,18.84-10.84,1.8-1.2,3.18-4.34,3.23-6.62,.3-13.65,.17-27.3,.11-40.96,0-1.44,.02-3.39-.83-4.24-6.76-6.73-13.73-13.26-21.35-20.53v83.18Z"/>
    <path class="cls-1" d="M207.74,205.38v-46.78c6.85,5.61,12.87,10.37,18.61,15.43,.88,.77,1.21,3.42,.58,4.44-5.79,9.34-11.85,18.52-17.83,27.74-.45-.28-.9-.56-1.36-.84Zm4.94-14.34c.3,.18,.6,.36,.9,.54,2.99-4.85,5.98-9.69,9.07-14.71-3.39-2.76-6.28-5.11-9.97-8.1v22.27Z"/>
  </g>
</svg>